<?xml version="1.0" encoding="utf-8"?>
<svg viewBox="264.9519 165.9998 538.6681 509.0456" xmlns="http://www.w3.org/2000/svg">
  <defs>
    <style>.cls-1{fill:#889e65;}.cls-2{fill:#043c31;}.cls-3{fill:#899e64;}</style>
  </defs>
  <path class="cls-1" d="M733,301.19,731,303.32a91,91,0,0,1-128.72,2.13l-73.92-71.52-4.62-4.47-2.2-2.12-16.14-15.62-.3-.29,6.94-7.17a83.86,83.86,0,0,1,82.73-22.58,83.57,83.57,0,0,1,35.87,20.43l.19.17h0Z"/>
  <path class="cls-2" d="M803.62,492.83h-58V540c0,.8,0,1.6-.07,2.38,0,.26,0,.51,0,.76a44.21,44.21,0,0,1-8.92,23.73.21.21,0,0,1,0,.06,44.51,44.51,0,0,1-23,15.8l-.22.06a44,44,0,0,1-12.22,1.71h-49.5V492.83h-58.5L698.62,390Z"/>
  <path class="cls-2" d="M421.5,289.25c-5.21,5-5.28,11.59-10.5,16.58-.48.46-1.52,2.54-2,3-14.41,13.77-27.56,28.34-42,42-3.8,3.59-5.86,7.45-5.82,12.85.2,24.72-.07,49.44-.07,74.17,0,32.92.11,65.85.14,98.78,0,11.65-.43,23.31-.07,34.94.48,15.17.74,30.41,2.59,45.45,1.76,14.4,6.26,28.31,14.66,40.72a12.49,12.49,0,0,0,4.36,4c1.26.73,30.21,12.08,29.42,12.67-1,.75-33.58-6.53-34.87-7.12-3.16-1.42-5.95-3.59-9.1-5-16-7.35-28.11-19.17-40.16-31.17-9.45-9.41-19.24-18.52-29-27.63-11.06-10.31-20.09-22-25.87-35.71A99,99,0,0,1,265,528.9c0-13.78,0-27.57,0-41.36q0-21.37,0-42.76h0c0-27.93-.15-55.86.08-83.79.07-8.28.1-16.78,2-24.77a94.21,94.21,0,0,1,11.48-28,86.43,86.43,0,0,1,11.79-15Z"/>
  <path class="cls-2" d="M619.54,193A83.05,83.05,0,0,0,595.31,182a83.94,83.94,0,0,0-82.73,22.58l-6.94,7.17.3.29L488.2,229.73l-128,128-54.05,54.05L285,390.75a65.53,65.53,0,0,1,0-92.66L406.12,177A63.49,63.49,0,0,1,442,166h121a39.37,39.37,0,0,1,6,.45,41.22,41.22,0,0,1,28.77,9.14Z"/>
  <rect class="cls-2" x="518.66" y="348.5" width="50" height="50"/>
  <rect class="cls-2" x="442.66" y="348.5" width="50" height="50"/>
  <rect class="cls-2" x="518.66" y="420.17" width="50" height="50"/>
  <rect class="cls-2" x="442.66" y="420.17" width="50" height="50"/>
  <path class="cls-3" d="M361.6,579c27.56.58,165,3.34,282.58,1.5,0,0,90.41-2.38,99.82-29a23.76,23.76,0,0,0,1.25-5.75,129.16,129.16,0,0,1-3.49,15A138.27,138.27,0,0,1,732,584.5c-5.7,10.87-47.83,82.23-119,89.5a117.46,117.46,0,0,1-17,.5c-40.69-1.79-66.69.45-97.33.25-17.24-.11-41.82-.15-71.87.25-7.75.26-27.8-.15-44.92-13.75a50.11,50.11,0,0,1-14.48-17c-2.26-4.48-4.37-10.53-5-32C362.18,603.9,360.75,592.55,361.6,579Z"/>
</svg>